# xmcd
#
# Track frame offsets: 
#        150
#        23642
#        44137
#        66826
#        81785
#        104369
#        125219
#        148029
#        173871
#        207113
#
# Disc length: 3033 seconds
#
# Revision: 0
# Processed by: cddbd v1.5.2PL0 Copyright (c) Steve Scherf et al.
# Submitted via: ExactAudioCopyFreeDBPlugin 1.0
#
DISCID=920bd70a
DTITLE=Ludo - I Lov U
DYEAR=2012
DGENRE=World
TTITLE0=I Love U
TTITLE1=Pa Mim
TTITLE2=Dream
TTITLE3=Truc De Ouf
TTITLE4=Ni Dé Moman
TTITLE5=Ca Vient Du Coeur
TTITLE6=Caresse Moi 
TTITLE7=I Love You (Remix)
TTITLE8=Dream (Remix)
TTITLE9=Truc De Ouf (Remix)
EXTD=
EXTT0=
EXTT1=
EXTT2=
EXTT3=
EXTT4=
EXTT5=
EXTT6=
EXTT7=
EXTT8=
EXTT9=
PLAYORDER=
